<svg xmlns="http://www.w3.org/2000/svg" fill="none" viewBox="0 0 32 32"><g clip-path="url(#a)"><path fill="#2C7DFA" d="M0 0h32v32H0z"/><path fill="#fff" fill-rule="evenodd" d="M12.162.1h-1.097v1.096h1.097V.099Zm5.483 0h-1.097v1.096h1.097V.099Zm0 0h1.096v1.096h-1.096V.099Zm3.29 0h-1.097v1.096h1.097V.099ZM8.872 1.195h2.193V6.679H9.97v3.29H8.872v-3.29H9.97V4.486H8.872v-3.29Zm3.29 0h1.096v1.097h-1.096v1.096h1.096v1.097h-1.096V3.389h-1.097V2.293h1.097V1.196Zm2.193 0h-1.097v2.193h2.194V1.196h-1.097Zm2.193 0h-1.096v1.097h1.096v1.096h1.097V2.293h-1.097V1.196Zm3.29 0h-1.097v1.097h1.097V1.196Zm2.193 0h1.097v7.676H22.03V1.196Zm1.097 7.676h1.096V9.97h-1.096V8.872Zm-2.193-6.58h-1.097V3.39h1.097V2.293Zm-3.29 1.097h2.193v1.097h-1.097v1.096h-1.096V3.39Zm-1.097 1.097h1.097v2.193h-1.097V4.486Zm0 2.193v1.097h1.097v1.096h-2.193V6.68h1.096Zm4.387-2.193h1.096v1.096h-1.096V4.486Zm-6.58 1.096h-1.097v2.194h1.097V5.582ZM12.162 6.68h-1.097v1.097h1.097v1.096h-1.097V9.97h1.097V8.872h1.096V7.776h-1.096V6.679Zm5.483 0h1.096v2.193h1.097v3.29h-2.193V6.679Zm3.29 0h-1.097v2.193h1.097V9.97h-1.097v1.096h2.193V8.872h-1.096V6.68ZM.099 8.872h1.097v2.193H.099V8.872Zm1.097 3.29v-1.097h1.097v1.097H1.196Zm0 1.096H.099v-1.096h1.097v1.096Zm0 0h1.097v1.097H1.196v-1.097Zm6.58-4.386H6.679V9.97h1.097V8.872Zm16.448 0h1.097V9.97h-1.097V8.872Zm1.097 1.097h1.097v1.096H25.32V9.97Zm3.29-1.097h-1.097V9.97h-1.096v1.096h1.096V9.97h1.097v1.096h1.096V8.872h-1.096Zm2.193 0h-1.096v2.193h1.096V8.872ZM3.39 9.97H2.293v3.289h1.096v-1.096h1.097v-1.097H3.389V9.97Zm2.193 0H6.68v1.096H5.582V9.97Zm0 2.193H4.486v-1.097h1.096v1.097Zm0 2.193v-2.193H6.68v2.193H5.582Zm0 0v2.193H4.486v-2.193h1.096Zm9.87-4.386h-1.097v1.096h-1.097v2.193h1.097v1.097h1.097V9.97Zm-8.773 1.096h2.193v2.193H7.776v-1.096H6.679v-1.097Zm1.097 3.29H6.679v-1.097h1.097v1.097Zm0 1.097v-1.097h1.096v1.097H7.776Zm0 0v1.096H6.679v-1.096h1.097Zm1.096-4.387h2.193v2.193H9.97v1.097H8.872v-3.29Zm1.097 3.29h1.096v3.29H8.872v-2.193H9.97v-1.097Zm5.483-3.29h2.193v1.097h-2.193v-1.097Zm-4.387 1.097h1.097v3.29h-1.097v-3.29Zm12.063 0H22.03v3.29h1.097v1.096h1.096v-2.193h-1.096v-2.193Zm1.096 0h2.194v2.193H25.32v1.097h-1.097v-3.29Zm1.097 3.29h1.097v4.386h-2.194v-1.097h1.097v-3.289Zm2.193-3.29h1.097v1.096h-1.097v-1.096Zm-9.87 1.096h-1.096v1.097h1.097v-1.097Zm0 0h1.098v2.194h-1.097v-2.194Zm1.098 2.194h1.096v1.096h-1.097v-1.096Zm3.29-2.194h-1.097v2.194h-1.097v4.386h1.097v1.097h-1.097v1.096h1.097v-1.096h1.096V16.548h-1.096v-1.096h1.096v-2.194Zm9.869 0h-1.097v2.194h1.097v-2.194ZM2.293 14.355h1.096v1.097H2.293v-1.097Zm24.125 0h1.096v1.097h-1.096v-1.097Zm2.193 5.483h1.096v-4.386h-2.193v1.096h-1.096v1.097h1.096v1.096h-1.096v1.097h1.096v1.097h-1.096V27.514h1.096v1.097h-1.096v1.096h1.096v1.097h-1.096v1.097h3.289V27.514h-1.096v-1.096h-1.097V25.32h2.193v-1.097h-1.096v-1.096h1.096V22.03h-1.096v1.097h-1.097v-2.193h1.097v-1.097Zm0 0v-1.097h-1.097v1.097h1.097Zm-1.097-2.193v-1.097h1.097v1.097h-1.097Zm3.29-3.29h-1.096v1.097h1.096v-1.097ZM1.196 15.452H.099v1.096h2.194v-1.096H1.196Zm10.966 1.096h-1.097v1.097h1.097v3.29h-1.097v1.096h1.097v1.097h-1.097v1.096h1.097v-1.096h1.096V22.03h-1.096v-1.096h1.096v-3.29h-1.096v-1.097Zm4.386 0h1.097v1.097h-1.097v-1.097Zm14.256 0h1.097v1.097h-1.097v-1.097ZM1.196 17.645H.099V23.128h1.097v-2.193h1.097v-1.097H1.196v-2.193Zm3.29 0h2.193v1.096H4.486v-1.096Zm2.193 0h1.097v1.096H6.679v-1.096Zm1.097 2.193v-1.097h1.096v1.097H7.776Zm0 0v1.097H6.679v-1.097h1.097Zm9.869-2.193h2.193v2.193h-1.097v-1.097h-1.096v-1.096ZM9.969 18.74H8.872v2.194H9.97v2.193H8.872v1.096h2.193V18.741H9.97Zm4.386 0h1.097v1.097h-1.097v-1.097Zm2.193 0h-1.096v1.097h1.096v1.097h1.097v-1.097h-1.097v-1.097Zm6.58 0H22.03v1.097h1.097v-1.097Zm6.58 0h1.096v1.097h-1.096v-1.097Zm2.193 0h-1.097v2.194h1.097V18.74ZM3.389 19.838h1.097v2.193H2.293v-1.096h1.096v-1.097Zm2.193 0H4.486v1.097h1.096v1.096H4.486v1.097h1.096V22.03H6.68v-2.193H5.582Zm8.773 1.097h-1.097v1.096h2.194v-1.096h-1.097Zm7.676 0h2.193v2.193h-1.096v3.29h1.096V31.9h-1.096V27.514H22.03V20.935Zm2.193 0h2.194v2.193h-2.194v-2.193ZM7.776 22.03H6.679v1.097h2.193V22.03H7.776Zm8.772 0h-1.096v2.193h1.096v-1.096h1.097V22.03h-1.097Zm3.29 0h-1.097v2.193h1.097v-2.193Zm9.87 0h1.096v1.097h-1.096V22.03Zm2.193 0h-1.097v1.097h1.097V22.03Zm-10.966 1.097h-1.097v2.193h1.097v2.193h-1.097v1.097h1.097v2.193h-1.097v1.097h2.193v-3.29h-1.096v-1.097h1.096v-3.29h-1.096v-1.096Zm-6.58 1.096h-1.097v1.097h1.097v-1.097Zm10.966 0h-1.097v1.097h1.097v-1.097Zm-13.16 1.097h-1.096v1.097h2.193V25.32h-1.096Zm4.387 0h-1.096v3.29h1.096v2.193h-1.096v1.097h1.096v-1.097h1.097v-2.193h-1.097v-2.193h1.097V25.32h-1.097Zm2.194 0h-1.097v2.193h1.096v1.097h-1.096v1.096h2.193v-2.193h-1.097v-2.193Zm13.159 0h-1.097v1.097h1.097V25.32Zm-18.642 1.097h2.193v2.193h-1.097v-1.097h-1.097v-1.096Zm12.062 0h-1.097v1.096h1.097v1.097h-1.097v1.096h1.097v1.097h-1.097v1.097h2.194V26.418H25.32Zm-14.256 1.096H9.97v2.193h1.096v-2.193Zm0 0h2.193v1.097h-1.096v1.096h-1.097v-2.193Zm18.642 0h1.097v2.193h-1.096v-2.193ZM13.26 29.708h1.096v1.096h-1.097v-1.096Zm1.096 1.096h1.097v1.097h-1.097v-1.097Zm17.546-1.096h-1.097v1.096h1.097v-1.096ZM8.872 30.803h2.193v1.097H8.872v-1.097Zm3.29 0h1.096v1.097h-1.096v-1.097Zm7.676 0h-1.097v1.097h1.097v-1.097ZM1.25.1h6.526V7.775H.099V.099h1.152Zm0 6.524h5.374V1.251H1.251v5.373ZM25.376.1H31.9V7.775H24.224V.099h1.152Zm0 6.524h5.373V1.251h-5.373v5.373ZM1.25 24.224h6.526V31.901H.099V24.224h1.152Zm0 6.525h5.374v-5.373H1.251v5.373Z" clip-rule="evenodd"/><path fill="#fff" d="M5.582 2.293h-3.29v3.29h3.29v-3.29ZM29.707 2.293h-3.29v3.29h3.29v-3.29ZM5.582 26.418h-3.29v3.29h3.29v-3.29Z"/></g><defs><clipPath id="a"><path fill="#fff" d="M0 0h32v32H0z"/></clipPath></defs></svg>